# xmcd
#
# Track frame offsets:
# 150
# 18306
# 37061
# 58136
# 76995
# 97208
# 114871
# 134931
# 149590
#
# Disc length: 2338 seconds
#
#
# Revision: 1
# Processed by: cddbd v1.5.1PL0 Copyright (c) Steve Scherf et al.
# Submitted via: FreeRIP 2.40 
#
DISCID=86092009
DTITLE=Litfiba - Infinito
DYEAR=1999
DGENRE=Rock
TTITLE0=Il mio corpo che cambia
TTITLE1=Mascherina
TTITLE2=Sexy dream
TTITLE3=Canto di gloria
TTITLE4=Nuovi rampanti
TTITLE5=Prendi in mano i tuoi anni
TTITLE6=Vivere il mio tempo
TTITLE7=Frank
TTITLE8=Incantesimo
EXTD=
EXTT0=
EXTT1=
EXTT2=
EXTT3=
EXTT4=
EXTT5=
EXTT6=
EXTT7=
EXTT8=
PLAYORDER=
